# xmcd
#
# Track frame offsets:
#	150
#	14868
#	26679
#	44403
#	58911
#	75861
#	88120
#	106979
#	132055
#	145371
#	157173
#	164487
#	180612
#	187225
#	196030
#	206442
#	220410
#	233783
#	249271
#	260131
#	276659
#	297864
#	306456
#	313648
#	339784
#
# Disc length: 4587 seconds
#
# Revision: 1
# Processed by: cddbd v1.5.2PL0 Copyright (c) Steve Scherf et al.
# Submitted via: audiograbber 1.83.01
#
DISCID=7f11e919
DTITLE=ZZZ - O bittre Zeit - Lagerlieder 1933 bis 1945 - CD 2
DYEAR=1900
DGENRE=Deutsch
TTITLE0=Aleksander Kulisiewicz - Hymn
TTITLE1=Die Grenzgänger - Der Posten
TTITLE2=Die Grenzgänger - Im Walde von Sachsenhausen
TTITLE3=Bremer Projekt-Ensemble - Sachsenhausenlied
TTITLE4=Bremer Projekt-Ensemble - Dachaulied
TTITLE5=Die Grenzgänger - TBC-Marsch >Walter Neff<
TTITLE6=Die Grenzgänger - Konzentrationäre (Neuengammer Lagerlied)
TTITLE7=Die Grenzgänger - Dachaulied
TTITLE8=Anna Aliena - Zur Arbeit
TTITLE9=Anna Aliena - Traum
TTITLE10=Rosa Sarice and Francesco Lotoro - Vanocni ukoleavka sestram v Ravensbrü
TTITLE10=ckub
TTITLE11=Zusana Rasiowa and Ensemble Neue Musik Bratislava - Ravensbrück, Ravensb
TTITLE11=rück
TTITLE12=Zusana Rasiowa and Ensemble Neue Musik Bratislava - Nad Ravensbrückem ae
TTITLE12=ra huci
TTITLE13=Bente Kahan - Ich wandere durch Theresienstadt
TTITLE14=Bente Kahan - Wiegala
TTITLE15=Daniel Kempin - Nisht keyn rozhinkes6
TTITLE16=Daniel Kempin - Tsu eyns, tsvey, dray
TTITLE17=gojin - Bombess
TTITLE18=gojin - arojss isin wilne a majer bafel 
TTITLE19=gojin - Ponar-Wiglid
TTITLE20=Ensemble Draj - Schtil, die Nacht
TTITLE21=Argus - Sog nit kejnmol
TTITLE22=Bremer Projekt-Ensemble - Buna-Lied
TTITLE23=Die Grenzgänger - Auschwitzlied
TTITLE24=Ruth Elias - Theresienstädter Marsch
EXTD=
EXTT0=
EXTT1=
EXTT2=
EXTT3=
EXTT4=
EXTT5=
EXTT6=
EXTT7=
EXTT8=
EXTT9=
EXTT10=
EXTT11=
EXTT12=
EXTT13=
EXTT14=
EXTT15=
EXTT16=
EXTT17=
EXTT18=
EXTT19=
EXTT20=
EXTT21=
EXTT22=
EXTT23=
EXTT24=
PLAYORDER=
